<svg width="332" height="80" viewBox="0 0 332 80" fill="none" xmlns="http://www.w3.org/2000/svg">
<path fill-rule="evenodd" clip-rule="evenodd" d="M30.7256 0L0 53.8619L19.6448 53.8408L23.9599 46.3247L12.8939 46.2943L30.7256 15.0375L34.6885 21.6678L39.0807 14.6555L30.7256 0Z" fill="#006457"/>
<path fill-rule="evenodd" clip-rule="evenodd" d="M313.816 43.4705V62.5125H307.043V43.4705L290.462 21.3552H298.752L310.836 36.611L322.107 21.3552H331.156L313.816 43.4705Z" fill="#F8A600"/>
<path fill-rule="evenodd" clip-rule="evenodd" d="M291.484 55.8175V62.6771H264.283V21.4102H271.056V55.8175H291.484Z" fill="#F8A600"/>
<path fill-rule="evenodd" clip-rule="evenodd" d="M242.221 21.4102C244.317 21.5198 246.195 22.0138 247.857 22.8919C248.543 23.2575 249.23 23.724 249.916 24.2912C250.602 24.8581 251.208 25.5624 251.731 26.4039C252.255 27.2453 252.679 28.2331 253.005 29.3672C253.329 30.5013 253.492 31.8183 253.492 33.3183C253.492 34.8547 253.329 36.1902 253.005 37.3243C252.679 38.4584 252.255 39.4553 251.731 40.3151C251.208 41.1747 250.602 41.8973 249.916 42.4827C249.23 43.068 248.543 43.5436 247.857 43.9094C246.195 44.8241 244.317 45.3363 242.221 45.4459H228.567V62.5125H221.793V38.5864H241.734C241.77 38.5864 242.059 38.5589 242.601 38.5042C243.143 38.4494 243.712 38.2573 244.308 37.9279C244.904 37.5986 245.454 37.0864 245.96 36.3914C246.466 35.6963 246.719 34.6901 246.719 33.3732C246.719 32.0928 246.457 31.1142 245.933 30.4375C245.409 29.7605 244.841 29.2575 244.226 28.9282C243.504 28.5257 242.673 28.3062 241.734 28.2697H221.793V21.3552H242.221V21.4102Z" fill="#F8A600"/>
<path fill-rule="evenodd" clip-rule="evenodd" d="M208.213 20.8619L210.232 21.3552L208.395 56.7459L203.458 62.5125L201.846 62.0688V25.8434L208.213 20.8619Z" fill="#F8A600"/>
<path fill-rule="evenodd" clip-rule="evenodd" d="M155.117 21.3004H163.353L175.491 47.202L187.574 21.3004H195.811L175.491 62.5125L155.117 21.3004Z" fill="#00554A"/>
<path fill-rule="evenodd" clip-rule="evenodd" d="M149.582 62.5125H142.051L133.056 45.7204H117.992V38.8607H137.553C138.384 38.8241 139.125 38.6047 139.775 38.2024C140.353 37.8821 140.877 37.3516 141.346 36.62C141.816 35.8974 142.051 34.8547 142.051 33.5102C142.051 32.2025 141.816 31.1781 141.346 30.4555C140.877 29.7239 140.353 29.1934 139.775 28.8732C139.125 28.4708 138.384 28.2514 137.553 28.2148H117.992V21.3552H137.553C139.648 21.465 141.527 21.9772 143.188 22.8919C143.875 23.2941 144.561 23.7881 145.248 24.3734C145.934 24.9588 146.539 25.6723 147.063 26.5137C147.587 27.355 148.011 28.352 148.336 29.5043C148.661 30.6569 148.824 32.0014 148.824 33.5378C148.824 36.0256 148.426 38.065 147.632 39.6565C146.837 41.2479 145.943 42.4917 144.95 43.3882C143.956 44.2845 143.017 44.8972 142.132 45.2265C141.247 45.5557 140.714 45.7204 140.533 45.7204L149.582 62.5125Z" fill="#00554A"/>
<path fill-rule="evenodd" clip-rule="evenodd" d="M89.3199 21.3004L109.694 62.5125H101.457L89.3199 36.611L77.2364 62.5125H69L89.3199 21.3004Z" fill="#00554A"/>
<path fill-rule="evenodd" clip-rule="evenodd" d="M210.232 21.3552V57.1896L203.458 62.5125V26.6782L210.232 21.3552Z" fill="#00554A"/>
<path fill-rule="evenodd" clip-rule="evenodd" d="M204.886 75.4032V79H203.458V70.3261H207.764V70.3369C208.205 70.36 208.601 70.4643 208.951 70.6493C209.096 70.7264 209.241 70.8245 209.385 70.9442C209.53 71.0637 209.657 71.2121 209.768 71.3894C209.878 71.5667 209.968 71.775 210.036 72.0139C210.105 72.2529 210.139 72.5305 210.139 72.8466C210.139 73.1706 210.105 73.452 210.036 73.6909C209.968 73.9299 209.878 74.1401 209.768 74.3212C209.657 74.5024 209.53 74.6547 209.385 74.778C209.241 74.9014 209.096 75.0016 208.951 75.0788C208.601 75.2714 208.205 75.3794 207.764 75.4025L204.886 75.4032ZM204.886 71.7718V73.9575H207.661C207.669 73.9575 207.729 73.9521 207.844 73.9402C207.958 73.9281 208.078 73.8883 208.203 73.8187C208.329 73.7474 208.445 73.6395 208.552 73.493C208.658 73.3446 208.711 73.1325 208.711 72.853C208.711 72.5813 208.656 72.3751 208.546 72.2305C208.435 72.0879 208.316 71.9819 208.186 71.9104C208.034 71.8256 207.859 71.7795 207.661 71.7718H204.886ZM218.134 71.7718H213.841V73.9344H217.495V75.3801H213.841V77.5544H218.134V79H212.413V70.3261H218.134V71.7718ZM227.089 79H225.502L223.612 75.4611H221.859V79H220.431V70.3261H224.554C224.996 70.3492 225.391 70.4571 225.742 70.6499C225.886 70.7347 226.031 70.8388 226.176 70.9621C226.32 71.0854 226.448 71.236 226.558 71.4133C226.669 71.5906 226.758 71.8007 226.827 72.0435C226.895 72.2864 226.929 72.5698 226.929 72.8936C226.929 73.4178 226.846 73.8476 226.678 74.183C226.511 74.5185 226.322 74.7807 226.113 74.9696C225.903 75.1584 225.705 75.2876 225.519 75.3569C225.333 75.4264 225.22 75.4611 225.182 75.4611L227.089 79ZM221.859 74.0153H224.558C224.731 74.0072 224.887 73.9613 225.024 73.8765C225.146 73.8091 225.254 73.6973 225.353 73.5432C225.452 73.3908 225.502 73.1713 225.502 72.8878C225.502 72.6121 225.452 72.3962 225.353 72.244C225.254 72.0898 225.146 71.978 225.024 71.9104C224.887 71.8256 224.731 71.7795 224.558 71.7718H221.859V74.0153ZM230.585 75.4726V79H229.158V70.3261H234.868V71.7718H230.585V74.0271H234.4V75.4726H230.585ZM242.886 71.7718H238.592V73.9344H242.246V75.3801H238.592V77.5544H242.886V79H237.165V70.3261H242.886V71.7718ZM252.138 77.6932C251.734 78.0941 251.274 78.4082 250.756 78.6357C250.238 78.8631 249.698 78.9769 249.134 78.9769C248.579 78.9769 248.044 78.8631 247.53 78.6357C247.016 78.4082 246.561 78.0979 246.165 77.7048C245.769 77.3116 245.453 76.8527 245.217 76.3284C244.981 75.8042 244.863 75.245 244.863 74.6516C244.863 74.0886 244.976 73.547 245.2 73.0266C245.425 72.5061 245.731 72.0455 246.119 71.6444C246.508 71.2435 246.961 70.9236 247.478 70.6845C247.996 70.4456 248.548 70.3261 249.134 70.3261C249.698 70.3261 250.238 70.4398 250.756 70.6693C251.274 70.8985 251.734 71.2165 252.138 71.6195L251.19 72.5813C250.878 72.3423 250.556 72.1477 250.225 71.9971C249.894 71.8469 249.53 71.7718 249.134 71.7718C248.738 71.7718 248.367 71.8469 248.021 71.9971C247.674 72.1477 247.374 72.3519 247.119 72.6141C246.864 72.8762 246.662 73.1827 246.513 73.5315C246.365 73.8824 246.291 74.2564 246.291 74.6573C246.291 75.0582 246.365 75.4322 246.513 75.7829C246.662 76.1319 246.864 76.4363 247.119 76.6946C247.374 76.9529 247.674 77.1553 248.021 77.3058C248.367 77.4561 248.738 77.5313 249.134 77.5313C249.53 77.5313 249.888 77.458 250.208 77.3116C250.527 77.1651 250.805 76.9722 251.041 76.7332L252.138 77.6932ZM261.07 71.7718H258.215V79H256.787V71.7718H253.932V70.3261H261.07V71.7718ZM273.085 77.6932C272.681 78.0941 272.221 78.4082 271.703 78.6357C271.185 78.8631 270.645 78.9769 270.081 78.9769C269.526 78.9769 268.991 78.8631 268.477 78.6357C267.963 78.4082 267.508 78.0979 267.112 77.7048C266.716 77.3116 266.401 76.8527 266.165 76.3284C265.928 75.8042 265.81 75.245 265.81 74.6516C265.81 74.0886 265.923 73.547 266.147 73.0266C266.372 72.5061 266.678 72.0455 267.067 71.6444C267.455 71.2435 267.908 70.9236 268.426 70.6845C268.943 70.4456 269.495 70.3261 270.081 70.3261C270.645 70.3261 271.185 70.4398 271.703 70.6693C272.221 70.8985 272.681 71.2165 273.085 71.6195L272.137 72.5813C271.825 72.3423 271.503 72.1477 271.172 71.9971C270.841 71.8469 270.477 71.7718 270.081 71.7718C269.686 71.7718 269.314 71.8469 268.968 71.9971C268.622 72.1477 268.321 72.3519 268.066 72.6141C267.811 72.8762 267.609 73.1827 267.461 73.5315C267.312 73.8824 267.238 74.2564 267.238 74.6573C267.238 75.0582 267.312 75.4322 267.461 75.7829C267.609 76.1319 267.811 76.4363 268.066 76.6946C268.321 76.9529 268.622 77.1553 268.968 77.3058C269.314 77.4561 269.686 77.5313 270.081 77.5313C270.477 77.5313 270.835 77.458 271.155 77.3116C271.475 77.1651 271.753 76.9722 271.989 76.7332L273.085 77.6932ZM282.028 70.3261V79H280.601V75.4726H276.958V79H275.53V70.3261H276.958V74.0271H280.601V70.3261H282.028ZM288.391 70.3261C288.962 70.3261 289.504 70.4379 290.018 70.6615C290.532 70.885 290.987 71.1916 291.383 71.581C291.779 71.9701 292.093 72.4291 292.325 72.9572C292.557 73.4853 292.673 74.054 292.673 74.6631C292.673 75.2413 292.563 75.7907 292.342 76.3111C292.121 76.8315 291.818 77.2921 291.434 77.6932C291.05 78.0941 290.597 78.4121 290.075 78.6473C289.554 78.8824 288.992 79 288.391 79C287.82 79 287.275 78.8882 286.758 78.6646C286.24 78.441 285.785 78.1327 285.393 77.7395C285.001 77.3461 284.689 76.8856 284.457 76.3573C284.224 75.8292 284.108 75.2645 284.108 74.6631C284.108 74.077 284.219 73.5238 284.439 73.0035C284.66 72.4831 284.963 72.026 285.347 71.633C285.732 71.2397 286.185 70.9274 286.706 70.6962C287.228 70.4649 287.789 70.3414 288.391 70.3261ZM288.396 77.5544C288.769 77.5544 289.127 77.4793 289.473 77.3287C289.82 77.1784 290.122 76.9741 290.385 76.712C290.648 76.4499 290.855 76.1434 291.011 75.7945C291.167 75.4437 291.245 75.0698 291.245 74.6687C291.245 74.2833 291.171 73.9172 291.023 73.5664C290.874 73.2154 290.672 72.9089 290.413 72.643C290.155 72.377 289.852 72.1669 289.507 72.0089C289.161 71.8508 288.792 71.7718 288.396 71.7718C288.015 71.7718 287.654 71.8469 287.307 71.9971C286.963 72.1477 286.658 72.3519 286.396 72.6141C286.133 72.8762 285.925 73.1846 285.769 73.5373C285.613 73.892 285.535 74.2678 285.535 74.6687C285.535 75.0621 285.609 75.4283 285.758 75.7714C285.907 76.1126 286.108 76.4151 286.367 76.6773C286.626 76.9396 286.929 77.1458 287.273 77.2998C287.619 77.4542 287.993 77.539 288.396 77.5544ZM294.764 70.3261H296.192V79H294.764V70.3261ZM305.649 77.6932C305.245 78.0941 304.785 78.4082 304.267 78.6357C303.749 78.8631 303.209 78.9769 302.645 78.9769C302.09 78.9769 301.555 78.8631 301.041 78.6357C300.527 78.4082 300.072 78.0979 299.676 77.7048C299.28 77.3116 298.965 76.8527 298.729 76.3284C298.492 75.8042 298.374 75.245 298.374 74.6516C298.374 74.0886 298.487 73.547 298.711 73.0266C298.936 72.5061 299.242 72.0455 299.631 71.6444C300.019 71.2435 300.472 70.9236 300.99 70.6845C301.507 70.4456 302.059 70.3261 302.645 70.3261C303.209 70.3261 303.749 70.4398 304.267 70.6693C304.785 70.8985 305.245 71.2165 305.649 71.6195L304.701 72.5813C304.389 72.3423 304.067 72.1477 303.736 71.9971C303.405 71.8469 303.041 71.7718 302.645 71.7718C302.25 71.7718 301.879 71.8469 301.532 71.9971C301.186 72.1477 300.885 72.3519 300.63 72.6141C300.375 72.8762 300.173 73.1827 300.025 73.5315C299.876 73.8824 299.802 74.2564 299.802 74.6573C299.802 75.0582 299.876 75.4322 300.025 75.7829C300.173 76.1319 300.375 76.4363 300.63 76.6946C300.885 76.9529 301.186 77.1553 301.532 77.3058C301.879 77.4561 302.25 77.5313 302.645 77.5313C303.041 77.5313 303.399 77.458 303.719 77.3116C304.039 77.1651 304.317 76.9722 304.553 76.7332L305.649 77.6932ZM313.816 71.7718H309.522V73.9344H313.176V75.3801H309.522V77.5544H313.816V79H308.094V70.3261H313.816V71.7718Z" fill="#F8A600"/>
<path fill-rule="evenodd" clip-rule="evenodd" d="M40.1395 18L11.06 68.7154L26.5315 68.7532L26.5275 76.9863L11 79.2268L49.0696 79.4293L33.9821 76.9728L33.9283 61.261L24.0081 61.265L39.9868 33.1083L48.0613 47.0548L35.1091 47.0522L30.6253 54.6236L60.9525 54.6155L40.1395 18Z" fill="#00554A"/>
</svg>
