<svg width="199" height="47" viewBox="0 0 199 47" fill="none" xmlns="http://www.w3.org/2000/svg">
<path d="M90.4073 36.0987C87.1127 37.048 85.136 35.9801 84.1776 33.0136C82.5004 27.7332 79.146 25.182 73.4554 26.4873C71.5386 26.9026 71.5985 25.6567 71.4787 24.2921C71.3589 22.6309 72.0777 22.3342 73.5752 22.3935C76.5702 22.5122 79.5653 22.4529 82.5603 22.3935C85.0162 22.3342 85.9746 21.3849 85.9746 19.2491C85.9746 17.1132 84.9563 16.1639 82.5004 16.1639C79.3856 16.1046 76.2108 16.0453 73.096 16.1639C71.4188 16.2232 71.4787 15.3333 71.5386 14.206C71.5985 13.1974 71.1193 11.9515 73.0361 12.0108C76.3306 12.1295 79.6252 11.9515 82.9197 12.0702C86.5736 12.1888 89.0895 14.028 89.8682 16.9945C90.8266 20.7916 89.5687 24.2328 86.334 25.9533C85.136 26.606 85.5553 27.0806 85.9147 27.7925C87.3523 30.5217 88.8499 33.2509 90.4073 36.0987Z" fill="#056358"/>
<path d="M133.835 29.2756C133.835 27.4364 133.895 25.5379 133.835 23.6986C133.775 22.512 134.195 22.1561 135.393 22.1561C138.627 22.2154 141.802 22.2154 145.037 22.1561C147.672 22.1561 148.81 21.2068 148.751 19.1302C148.751 17.1724 147.612 16.2231 145.097 16.1638C141.862 16.1044 138.687 16.0451 135.453 16.1638C133.596 16.2231 133.835 15.1551 133.835 14.0279C133.835 12.9006 133.596 11.8327 135.453 11.892C138.747 12.07 142.042 11.8327 145.336 11.9513C150.548 12.1293 153.183 14.9178 152.824 19.8422C152.584 23.4613 150.128 25.8938 146.474 26.0718C144.138 26.1905 141.862 26.1905 139.526 26.0718C138.208 26.0125 137.849 26.4871 137.909 27.7331C137.968 30.0469 137.789 32.3608 137.968 34.6153C138.088 36.4545 136.95 36.1579 135.812 36.2172C134.734 36.2172 133.715 36.3952 133.835 34.734C133.955 32.9541 133.835 31.1149 133.835 29.2756Z" fill="#F1A302"/>
<path d="M54.165 21.5047C52.1883 25.5985 50.1517 29.5736 48.4146 33.6673C47.5161 35.8625 46.2581 36.7525 43.922 36.3372C43.5027 36.2778 43.0235 36.3372 42.125 36.3372C46.1982 28.209 50.1517 20.3775 54.2848 12.0713C58.418 20.2588 62.3714 28.0903 66.5645 36.3372C65.3065 36.3372 64.408 36.2185 63.5095 36.3372C62.1318 36.5152 61.3531 35.9812 60.814 34.6759C59.0769 30.8195 57.22 27.0224 55.363 23.2253C55.0635 22.6913 54.9437 22.0387 54.165 21.5047Z" fill="#056358"/>
<path d="M93.8164 12.129C98.6684 11.8324 98.6684 11.8324 100.585 15.8074C102.322 19.4859 104.059 23.105 106.036 27.1988C108.013 23.0457 109.81 19.3079 111.607 15.5108C113.464 11.6544 113.464 11.6544 118.136 12.1883C114.123 20.1385 110.229 27.9701 106.036 36.2762C101.903 28.0887 97.9495 20.2572 93.8164 12.129Z" fill="#056358"/>
<path d="M175.287 12.3666C178.582 11.4766 180.678 12.2479 182.295 14.7991C183.434 16.6383 184.991 18.1216 186.309 19.8421C187.088 20.8507 187.507 20.7914 188.226 19.7828C189.244 18.2402 190.442 16.8163 191.58 15.3331C194.276 11.8326 194.276 11.7733 198.948 12.1292C199.187 12.8412 198.588 13.1972 198.229 13.6125C197.211 14.9771 196.252 16.4603 194.994 17.5876C190.142 22.156 187.866 27.555 189.004 34.2593C189.304 35.9798 188.525 36.3951 186.908 36.3358C185.35 36.3358 184.692 35.9205 184.931 34.3186C186.129 27.4957 183.673 21.978 178.941 17.1723C177.623 15.8077 176.605 14.0871 175.287 12.3666Z" fill="#F1A302"/>
<path d="M159.348 24.1719C159.348 20.7901 159.468 17.3489 159.288 13.9672C159.228 12.1873 160.067 12.1279 161.445 12.1279C162.762 12.1279 163.481 12.2466 163.421 13.9078C163.302 19.4848 163.421 25.0025 163.361 30.5795C163.361 32.0034 163.721 32.5374 165.218 32.478C168.213 32.3594 171.208 32.5374 174.203 32.4187C176 32.3594 175.641 33.4866 175.641 34.4359C175.641 35.3852 176 36.5125 174.263 36.5125C169.771 36.3938 165.278 36.4531 160.846 36.5125C159.528 36.5125 159.408 35.9785 159.408 34.9106C159.408 31.2914 159.348 27.7317 159.348 24.1719Z" fill="#F7A500"/>
<path d="M126.883 12.3066C126.883 18.9516 127.063 25.5372 126.883 32.1821C126.823 34.4366 124.367 34.9706 122.81 36.0385C122.81 30.5209 123.109 24.9439 122.75 19.4262C122.451 15.8664 123.828 13.7899 126.883 12.3066Z" fill="#056358"/>
<path d="M126.882 12.3067C123.887 13.7307 122.51 15.8665 122.749 19.4263C123.109 24.944 122.809 30.521 122.809 36.0387C121.611 36.098 121.851 35.1487 121.851 34.4961C121.851 28.3258 121.791 22.1555 121.851 15.9259C121.791 14.0273 125.026 11.7728 126.882 12.3067Z" fill="#D0990C"/>
<path d="M146.534 41.0809C146.055 42.3862 144.318 41.0216 144.198 42.2675C144.078 43.3948 145.695 42.4455 146.055 43.3355C145.935 44.5221 143.958 43.2168 144.258 44.5814C144.437 45.4713 145.755 44.7 146.654 45.6493C145.456 46.2426 143.958 46.4799 143.419 45.768C142.461 44.5221 142.64 42.6235 143.239 41.3182C143.719 40.191 145.276 40.7843 146.534 41.0809Z" fill="#D0990C"/>
<path d="M132.096 45.7696C130.419 46.0662 128.921 46.6002 128.322 45.5916C127.663 44.3457 127.663 42.5658 128.322 41.3199C128.921 40.1926 130.419 41.0232 131.437 40.9046C131.557 41.5572 131.377 41.6758 131.018 41.7945C130.419 41.9725 129.46 41.4385 129.281 42.2691C129.101 43.2777 130.239 42.8031 130.718 43.0998C130.898 43.1591 131.078 43.3964 131.018 43.5744C131.018 43.7524 130.778 43.9304 130.599 43.9897C130.119 44.227 129.161 43.7524 129.221 44.583C129.341 45.4729 130.299 44.939 130.898 45.1763C131.257 45.1763 131.377 45.295 132.096 45.7696Z" fill="#D0990C"/>
<path d="M189.061 45.6502C187.922 46.2435 186.365 46.4809 185.886 45.6502C185.107 44.4043 185.107 42.5058 185.886 41.2005C186.365 40.3699 187.922 40.7259 189.12 41.0819C188.641 42.3871 186.904 41.0818 186.844 42.3278C186.784 43.277 188.162 42.6244 188.641 43.2177C188.641 44.523 186.605 43.3364 186.904 44.5823C187.024 45.5909 188.521 44.523 189.061 45.6502Z" fill="#D0990C"/>
<path d="M173.785 46.0059C172.228 45.8279 171.27 44.9973 171.21 43.514C171.15 42.0308 172.108 41.0222 173.666 40.9035C175.103 40.7849 176.481 42.0901 176.361 43.514C176.301 44.9973 175.343 45.8279 173.785 46.0059ZM175.463 43.336C175.223 42.3868 174.684 41.7341 173.606 41.7935C172.707 41.9121 172.108 42.5647 172.168 43.4547C172.228 44.4633 172.947 45.0566 173.965 44.9379C174.924 44.8786 175.403 44.226 175.463 43.336Z" fill="#D0990C"/>
<path d="M136.886 45.7703C135.569 46.6602 134.61 40.9052 133.532 46.4822C132.633 44.5243 132.753 42.8631 133.113 41.4392C133.412 40.2526 134.91 40.8459 135.808 40.9646C136.707 41.0832 137.366 42.0918 136.827 42.8038C135.988 43.8717 136.347 44.8803 136.886 45.7703ZM134.97 43.0411C135.269 42.9818 135.928 43.1004 135.928 42.3291C135.868 41.7952 135.329 41.7952 134.91 41.7952C134.49 41.7952 133.951 41.7359 133.951 42.3885C133.891 42.9818 134.371 43.0411 134.97 43.0411Z" fill="#D0990C"/>
<path d="M169.835 40.666C170.134 42.6239 170.314 44.2258 169.775 45.9464C168.577 45.5904 169.595 43.9292 168.038 43.9292C166.361 43.8698 167.439 45.5311 166.361 45.9464C165.702 44.2851 166.181 42.6239 166.061 40.9033C167.559 41.0813 166.301 43.5138 168.337 43.0392C169.595 42.6832 168.637 41.378 169.835 40.666Z" fill="#D0990C"/>
<path d="M123.291 45.9475C122.512 44.5236 122.692 43.0403 122.811 41.6164C122.931 40.2518 124.189 40.9044 124.968 40.8451C125.986 40.7264 126.705 41.2011 126.825 42.269C126.885 43.159 126.406 43.8709 125.567 43.8116C123.95 43.6929 123.71 44.7609 123.291 45.9475ZM125.747 42.3284C125.567 41.6164 125.028 41.7944 124.549 41.7944C124.189 41.7944 123.77 41.8537 123.77 42.3284C123.77 43.0403 124.309 43.0403 124.848 43.0403C125.327 42.981 125.687 42.8623 125.747 42.3284Z" fill="#D0990C"/>
<path d="M184.389 44.9381C182.652 46.3026 181.454 46.1246 180.436 44.9974C179.418 43.9294 179.537 42.6835 180.556 41.6156C181.634 40.5477 182.772 40.4883 184.389 41.6749C182.832 42.0309 180.795 41.2003 180.855 43.4548C180.915 45.472 182.712 44.7601 184.389 44.9381Z" fill="#D0990C"/>
<path d="M151.744 45.0564C150.367 46.3617 149.169 46.1243 148.15 44.8191C147.252 43.6325 147.491 42.3866 148.629 41.4966C149.708 40.6067 150.786 40.5473 152.164 41.9119C150.546 42.0306 148.689 41.3186 148.689 43.4545C148.689 45.4124 150.486 44.8784 151.744 45.0564Z" fill="#D0990C"/>
<path d="M164.319 41.7349C163.001 41.8536 161.384 41.3789 161.264 43.2775C161.145 45.354 162.942 44.82 164.679 44.8794C163.481 46.1253 162.462 46.1846 161.444 45.4727C160.126 44.5827 159.827 43.3368 160.725 42.0315C161.684 40.6076 162.942 40.489 164.319 41.7349Z" fill="#D0990C"/>
<path d="M141.319 43.8129C140.061 43.9316 138.504 43.8722 138.923 46.1861C137.964 44.4062 137.905 42.6263 138.504 41.2617C138.863 40.3718 140.54 40.7278 141.678 41.1431C141.558 41.4397 141.558 41.6177 141.439 41.677C140.78 42.1517 139.462 41.3211 139.342 42.3297C139.162 43.8129 140.84 42.6263 141.319 43.3976C141.379 43.3976 141.319 43.5163 141.319 43.8129Z" fill="#D0990C"/>
<path d="M155.334 46.3034C154.136 44.4642 156.173 41.8537 152.998 41.3197C154.555 40.7264 155.933 40.7858 157.55 41.2011C154.615 41.8537 156.352 44.4049 155.334 46.3034Z" fill="#D0990C"/>
<path d="M178.097 45.8887C177.378 44.2868 177.498 42.6256 178.097 40.9644C178.696 42.5663 178.696 44.2275 178.097 45.8887Z" fill="#D0990C"/>
<path d="M8.45294 45.6246C10.3099 45.3279 12.1069 44.9126 13.9638 44.794C15.4613 44.6753 15.7608 44.082 15.7608 42.7174C15.641 39.0983 16.1801 39.8103 12.646 39.6916C10.7292 39.6323 8.81234 39.6916 6.47622 39.6916C8.15343 36.7845 9.59105 34.2926 11.2683 31.3261C7.73413 31.3261 4.4995 31.3261 1.26486 31.3261C0.00694954 31.3261 -0.352454 31.0888 0.366353 29.8429C6.11681 20.0535 11.8074 10.264 17.5578 0.474638C17.6177 0.355979 17.7974 0.296649 18.1568 0C19.7143 2.61051 21.4514 5.10236 22.5895 7.89086C23.3083 9.61142 21.2118 10.6794 20.3732 12.4593C19.5346 11.154 18.8756 10.0861 18.2167 9.13678C17.4979 9.01812 17.438 9.55209 17.1984 9.90807C14.2034 15.0104 11.2683 20.1721 8.21334 25.2745C7.43463 26.6391 7.67423 26.8171 9.23165 26.995C12.5262 27.351 14.7425 26.5204 16.24 23.1979C18.037 19.2822 20.493 15.7224 22.7093 12.0439C23.0687 11.4506 23.2484 10.62 24.2068 10.264C28.0404 16.8497 31.8741 23.4353 35.7077 30.0209C36.1869 30.8515 36.2468 31.3854 35.0488 31.3854C29.5979 31.3854 24.2068 31.3854 18.7558 31.3854C19.7742 25.2745 24.6261 27.2917 28.6395 26.8171C27.082 24.1472 25.6444 21.7147 23.9073 18.8075C20.6727 24.3845 17.6177 29.6056 14.3232 35.3012C16.0603 35.3012 17.4979 35.3605 18.9355 35.3012C20.0138 35.2419 20.3732 35.6572 20.3133 36.7251C20.2534 38.7423 20.3732 40.7002 20.3133 42.7174C20.2534 44.0227 20.493 44.7346 22.0504 44.8533C23.6078 44.9126 25.1053 45.3279 26.6028 45.8619C20.5529 45.8619 14.5628 45.8619 8.51284 45.8619C8.45294 45.7433 8.45294 45.6839 8.45294 45.6246Z" fill="#056358"/>
</svg>
